<?xml version="1.0" encoding="UTF-8"?>
<svg xmlns="http://www.w3.org/2000/svg" version="1.1" viewBox="0 0 1021 1021">
  <!-- Generator: Adobe Illustrator 29.8.2, SVG Export Plug-In . SVG Version: 2.1.1 Build 3)  -->
  <defs>
    <style>
      .st0 {
        fill: #fff;
      }

      .st1 {
        fill: #00a4ff;
      }
    </style>
  </defs>
  <g id="_图层_2" data-name="图层_2">
    <rect class="st1" width="1021" height="1021"/>
  </g>
  <g id="_图层_1" data-name="图层_1">
    <path class="st0" d="M238.7,387.3c-89,11.2-108.8,35.5-59.4,72.9,79.8,41.5,186.7,52.8,320.7,34-224.1,61.9-372.6,55.3-445.5-19.7-41.1-71.1,20.3-100.1,184.2-87.2h0Z"/>
    <path class="st0" d="M42.1,494.2c45.9,63,104.1,105.7,174.7,128.3,70.6,22.5,222.6,28.9,456.2,18.9-181.5,44.5-305.2,67.8-371.4,70.1-66.1,2.3-131.4-9.7-196-35.8-18.7-36.3-31.8-64.8-39-85.5-7.2-20.7-15.5-52.7-24.5-96h0Z"/>
    <path class="st0" d="M142.8,554.7c38.5,25.1,73.8,41.1,105.9,48.2,210.8,46.1,418.1,25.3,529-48.2,346.4-358.9-207-315.1-347.7-223.5,115.4-1.9,220,30.3,159,129-43.1,57-191.9,88.5-446.2,94.5h0Z"/>
    <path class="st0" d="M148.8,738.7c87.1,53.3,209.8,79.9,368.1,79.9s289.6-32,393.7-96l73.1-201.3c-87.4,71.9-190,123.1-307.8,153.8-65.4,17.1-137.7,42.5-238.8,53.7-54,6-150.1,9.3-288.3,10h0Z"/>
    <path class="st0" d="M744.7,602.9c62.8-36.7,107.6-70.2,134.4-100.5,26.8-30.3,41.1-63.9,43-100.6,46.5,8.9,59.3,37.5,38.3,86-21,48.4-92.9,86.8-215.7,115.1ZM505,287.8c88.2-33,154.3-52.8,198.6-59.4,44.2-6.6,110.4-6.6,198.6,0-25.7-49.9-80.4-68.5-164.3-56-83.9,12.5-161.5,51-232.9,115.4ZM827.7,259c33,15.7,56.3,31.8,70,48.4,13.8,16.6,20.7,42.3,20.6,76.8,18.2,4.4,31.2,10.3,38.9,17.5,7.7,7.3,16.5,17,26.5,29.2,18.9-31.2,14.4-67.6-13.5-109.3-27.8-41.8-75.3-62.6-142.5-62.6h0Z"/>
  </g>
</svg>